<?xml version="1.0" standalone="no"?>
<!DOCTYPE svg PUBLIC "-//W3C//DTD SVG 20010904//EN"
 "http://www.w3.org/TR/2001/REC-SVG-20010904/DTD/svg10.dtd">
<svg version="1.0" xmlns="http://www.w3.org/2000/svg"
 width="120.000000pt" height="120.000000pt" viewBox="0 0 120.000000 120.000000"
 preserveAspectRatio="xMidYMid meet">
<metadata>
Created by potrace 1.11, written by Peter Selinger 2001-2013
</metadata>
<g transform="translate(0.000000,120.000000) scale(0.100000,-0.100000)"
fill="#000000" stroke="none">
<path d="M909 945 l-45 -46 -39 16 c-106 45 -210 -57 -164 -159 10 -22 8 -29
-20 -61 -17 -20 -31 -40 -31 -45 0 -19 -15 -9 -39 25 -29 43 -112 99 -169 112
-103 26 -215 -9 -286 -88 -24 -27 -51 -49 -60 -49 -8 0 -24 -10 -35 -22 -23
-24 -21 -60 4 -88 8 -9 15 -31 15 -48 0 -53 39 -139 82 -183 131 -132 353
-118 453 28 l22 34 17 -25 c77 -118 243 -164 370 -102 93 45 163 144 170 238
2 32 8 43 25 49 11 5 21 16 21 25 0 30 -32 83 -53 90 -12 3 -40 25 -63 49 -45
48 -102 82 -151 91 -25 5 -35 13 -39 33 -3 14 -8 34 -11 44 -3 13 9 33 41 64
43 42 56 63 38 63 -4 0 -28 -20 -53 -45z m-52 -74 c22 -25 31 -70 16 -72 -66
-6 -96 -13 -135 -33 -38 -20 -49 -22 -58 -11 -21 25 -19 73 4 107 41 62 125
67 173 9z m-415 -117 c73 -37 87 -52 86 -93 0 -45 25 -94 59 -112 13 -7 23
-22 23 -33 0 -12 9 -27 20 -34 33 -20 26 -60 -12 -77 -18 -8 -44 -32 -56 -53
-46 -75 -150 -123 -252 -115 -131 10 -250 134 -250 260 0 19 -10 47 -22 64
-27 36 -16 62 26 67 14 2 31 12 36 23 6 11 21 19 36 19 38 0 80 26 103 64 12
19 30 37 39 39 36 8 132 -3 164 -19z m458 -2 c0 -61 -95 -172 -148 -172 -28 0
-71 -23 -85 -47 -16 -26 -35 -12 -46 32 -9 37 -9 51 3 73 42 80 146 140 244
138 27 0 32 -4 32 -24z m85 -2 c29 -11 111 -87 103 -95 -14 -14 -110 -6 -146
13 -39 21 -40 25 -23 100 1 3 30 -5 66 -18z m-755 0 c0 -15 -47 -57 -70 -63
-38 -10 -30 11 17 42 52 35 53 35 53 21z m709 -98 c23 -8 23 -9 -12 -30 -26
-15 -39 -32 -48 -60 -11 -37 -9 -44 13 -85 14 -25 22 -50 18 -57 -10 -16 -44
-9 -47 10 -9 69 -18 96 -39 117 l-25 24 48 53 c30 33 52 50 59 45 5 -4 21 -12
33 -17z m-361 -21 c25 -43 29 -73 9 -65 -17 6 -33 34 -42 72 -9 44 7 40 33 -7z
m579 -13 c15 -12 18 -38 4 -38 -12 0 -22 -36 -25 -90 -12 -193 -228 -314 -401
-225 -32 17 -72 47 -89 68 l-31 39 23 19 c23 18 24 18 50 -1 48 -35 105 -29
141 14 12 14 15 14 36 0 27 -18 65 -5 65 22 0 11 4 13 16 6 19 -11 78 0 100
19 23 19 43 63 39 85 -2 10 -4 24 -4 31 -1 7 -12 23 -26 37 -16 16 -20 26 -12
29 20 7 100 -3 114 -15z m-106 -29 c29 -34 25 -85 -11 -121 -26 -25 -36 -29
-67 -25 -47 7 -83 46 -83 91 0 83 105 119 161 55z m-321 -39 c-24 -15 -37 -11
-16 5 11 8 22 12 25 9 3 -3 -1 -9 -9 -14z m85 -15 c40 -39 37 -88 -7 -129 -26
-23 -37 -27 -66 -22 -47 7 -70 32 -74 80 -3 38 -1 40 47 66 64 35 71 35 100 5z"/>
<path d="M155 627 c-42 -42 -47 -92 -15 -137 21 -29 81 -56 100 -45 5 3 10 1
10 -4 0 -6 -11 -11 -23 -11 -27 0 -57 -28 -57 -53 0 -22 41 -42 138 -67 62
-16 86 -19 102 -10 27 15 25 42 -6 80 -15 17 -24 34 -20 37 3 4 6 2 6 -4 0
-18 58 -36 93 -29 64 12 99 75 77 140 -26 80 -131 95 -180 25 -26 -36 -46 -28
-54 20 -7 48 -43 81 -95 88 -36 5 -44 2 -76 -30z m105 -12 c37 -19 48 -66 25
-101 -33 -52 -93 -51 -121 2 -22 41 -11 82 26 101 32 16 35 16 70 -2z m259
-81 c28 -35 26 -65 -5 -99 -21 -22 -31 -26 -57 -21 -93 18 -85 146 9 146 23 0
39 -8 53 -26z m-156 -72 c9 -48 -15 -68 -60 -49 -31 14 -32 38 -4 63 31 26 57
20 64 -14z m-78 -58 c13 -9 37 -14 53 -13 48 5 95 -47 67 -74 -13 -13 -23 -13
-82 3 -38 10 -86 25 -106 34 -33 13 -37 18 -28 35 18 34 58 40 96 15z"/>
<path d="M190 558 c0 -17 3 -19 12 -10 17 17 28 15 28 -5 0 -15 2 -16 10 -3
11 18 -5 40 -31 40 -13 0 -19 -7 -19 -22z"/>
<path d="M440 495 c-16 -19 -5 -32 14 -16 11 9 15 8 20 -6 6 -15 9 -15 16 -3
10 16 -5 40 -25 40 -7 0 -18 -7 -25 -15z"/>
<path d="M967 376 c-25 -25 -88 -44 -119 -35 -20 5 -28 4 -28 -5 0 -16 37 -56
53 -57 7 0 21 -2 32 -4 42 -8 100 59 86 99 -7 17 -8 17 -24 2z m6 -33 c-17
-50 -75 -70 -115 -39 -26 19 -23 21 29 23 26 1 53 9 62 18 20 20 32 19 24 -2z"/>
<path d="M962 538 c-15 -15 -16 -48 -2 -48 6 0 9 6 8 13 -2 7 6 11 20 10 27
-3 29 13 4 26 -13 7 -23 6 -30 -1z"/>
<path d="M745 476 c-13 -9 -16 -19 -10 -32 8 -18 8 -18 12 -1 3 12 10 16 24
12 22 -7 25 7 6 24 -10 8 -18 7 -32 -3z"/>
</g>
</svg>
